General

Format                           : MPEG-4
Format profile                   : Base Media
Codec ID                         : isom
File size                        : 94.1 MiB
Duration                         : 3mn 25s
Overall bit rate                 : 3 847 Kbps
Encoded date                     : UTC 2012-07-05 00:36:28
Tagged date                      : UTC 2012-07-05 00:36:28

Video
ID                               : 1
Format                           : AVC
Format/Info                      : Advanced Video Codec
Format profile                   : High@L3.0
Format settings, CABAC           : Yes
Format settings, ReFrames        : 2 frames
Codec ID                         : avc1
Codec ID/Info                    : Advanced Video Coding
Duration                         : 3mn 25s
Bit rate mode                    : Variable
Bit rate                         : 3 909 Kbps
Maximum bit rate                 : 6 960 Kbps
Width                            : 720 pixels
Height                           : 480 pixels
Display aspect ratio             : 16:9
Original display aspect ratio    : 16:9
Frame rate mode                  : Constant
Frame rate                       : 25.000 fps
Standard                         : NTSC
Color space                      : YUV
Chroma subsampling               : 4:2:0
Bit depth                        : 8 bits
Scan type                        : Progressive
Bits/(Pixel*Frame)               : 0.452
Stream size                      : 92.1 MiB (98%)


Audio
ID                               : 2
Format                           : AAC
Format/Info                      : Advanced Audio Codec
Format profile                   : LC
Codec ID                         : 40
Duration                         : 3mn 25s
Bit rate mode                    : Variable
Bit rate                         : 74.6 Kbps
Maximum bit rate                 : 86.9 Kbps
Channel(s)                       : 2 channels
Channel positions                : Front: L R
Sampling rate                    : 44.1 KHz
Compression mode                 : Lossy
Stream size                      : 1.82 MiB (2%)